<svg xmlns="http://www.w3.org/2000/svg" viewBox="0 0 32 32" role="img" aria-label="Bellwether">
  <style>
    .ink{fill:#1a1814}
    .ox{fill:#8b1e1e}
    @media (prefers-color-scheme: dark){
      .ink{fill:#f0ebde}
      .ox{fill:#c44545}
    }
  </style>
  <path class="ink" d="M16 3.2a1.7 1.7 0 0 0-1.7 1.7v.5h-.6a.6.6 0 0 0-.6.6v.7a.6.6 0 0 0 .6.6h4.6a.6.6 0 0 0 .6-.6v-.7a.6.6 0 0 0-.6-.6h-.6v-.5A1.7 1.7 0 0 0 16 3.2z"/>
  <path class="ink" d="M16 8c-4.3 0-7 2.7-7 7.2v6.6c0 1.2-.9 2.2-2.4 3l-.6.3v.5h20v-.5l-.6-.3c-1.5-.8-2.4-1.8-2.4-3v-6.6C23 10.7 20.3 8 16 8z"/>
  <circle class="ox" cx="16" cy="27.4" r="1.7"/>
</svg>
